<?xml version="1.0" encoding="UTF-8"?>
<svg width="1000px" height="526px" viewBox="0 0 1000 526" version="1.1" xmlns="http://www.w3.org/2000/svg" xmlns:xlink="http://www.w3.org/1999/xlink">
    <!-- Generator: Sketch 49.3 (51167) - http://www.bohemiancoding.com/sketch -->
    <title>Page 1</title>
    <desc>Created with Sketch.</desc>
    <defs>
        <polygon id="path-1" points="0.0002 0.0003 1000 0.0003 1000 525.763 0.0002 525.763"></polygon>
    </defs>
    <g id="Page-1" stroke="none" stroke-width="1" fill="none" fill-rule="evenodd">
        <g>
            <mask id="mask-2" fill="white">
                <use xlink:href="#path-1"></use>
            </mask>
            <g id="Clip-2"></g>
            <path d="M981.3082,96.9263 C980.3622,100.2383 979.6742,103.6123 979.2282,106.9793 C969.7702,99.3113 957.1972,100.9053 947.2612,112.5413 C936.7652,124.8333 932.3482,144.6563 935.3362,161.6013 C926.4902,168.1733 919.9022,177.4773 916.9002,188.2203 C911.7702,185.7063 906.0432,184.2993 900.0002,184.2993 C883.8332,184.2993 869.9212,194.3533 863.6992,208.7883 C862.7992,208.7253 861.8912,208.6903 860.9752,208.6903 C839.0072,208.6903 821.1982,227.2533 821.1982,250.1533 C821.1982,254.2333 821.7662,258.1743 822.8202,261.8993 C816.5962,267.2943 811.9382,274.2383 809.5582,282.0753 C808.8032,282.0063 808.0412,281.9533 807.2762,281.9173 C807.0942,281.8603 806.9122,281.8013 806.7272,281.7463 C790.8242,277.0823 771.1342,288.5023 761.6292,306.6573 C755.3262,318.6963 754.5562,331.6983 758.9342,341.2443 C747.9022,343.7503 738.8782,351.6413 734.6942,362.0563 C728.9472,357.6483 721.7872,355.0303 714.0242,355.0303 C701.5302,355.0303 690.5982,361.8053 684.6042,371.9273 C682.6062,358.9273 670.6052,348.9343 656.0982,348.9343 C649.8502,348.9343 644.0682,350.7863 639.3492,353.9353 C634.1872,343.0813 622.6062,335.5193 609.1462,335.5193 C608.4092,335.5193 607.6782,335.5453 606.9532,335.5903 L606.9352,335.5903 C591.6102,335.5903 579.1692,343.7283 579.0032,353.8093 C579.0022,353.8113 579.0002,353.8143 578.9992,353.8173 C574.9712,351.4903 570.2682,350.1533 565.2442,350.1533 C556.8562,350.1533 549.3632,353.8753 544.4162,359.7123 C540.4262,350.0853 532.3332,342.9393 522.5862,340.9543 C522.3192,330.9523 511.3652,322.9053 497.8812,322.9053 C493.9432,322.9053 490.2232,323.5953 486.9182,324.8163 C480.5792,326.9863 475.1422,331.3983 471.3812,337.2083 C466.0012,331.6263 458.7422,328.2013 450.7522,328.2013 C435.7422,328.2013 423.3052,340.2843 421.0852,356.0673 C416.5702,353.0873 411.2832,351.3723 405.6302,351.3723 C399.0452,351.3723 392.9562,353.6993 388.0072,357.6433 C386.6622,352.6323 384.0412,348.1793 380.5392,344.6823 C376.1152,339.6983 368.5322,336.4103 359.9142,336.4103 C359.0952,336.4103 358.2852,336.4423 357.4862,336.5003 C358.1002,334.2513 358.4332,331.8773 358.4332,329.4213 C358.4332,317.8333 351.1162,308.0473 341.0802,304.8883 C343.0712,300.8753 344.1882,296.3733 344.1882,291.6163 C344.1882,289.9883 344.0562,288.3903 343.8042,286.8303 C343.5652,285.0723 343.1232,283.3603 342.4992,281.7083 C338.4652,270.2453 327.6252,261.8693 314.6862,261.1773 C313.2002,260.9753 311.7062,260.8683 310.2172,260.8683 C304.2392,260.8683 299.1992,262.6303 295.4932,265.5233 C293.8922,264.8353 292.1972,264.3193 290.4342,263.9883 C288.3662,249.8653 279.2692,238.0673 266.0242,234.4673 C264.7192,234.1133 263.4092,233.8503 262.0982,233.6703 C260.6212,227.2513 257.5602,221.5103 253.3922,216.9603 C246.8752,209.4543 236.4352,204.5303 226.2132,204.5303 C215.9682,204.5303 208.4692,209.6993 205.7442,216.8833 C203.5312,214.5533 200.8292,212.5983 197.6952,211.2013 C191.2662,208.3383 184.3062,208.3703 178.3322,210.7283 C176.3222,207.5553 173.7032,204.7193 170.5532,202.4123 C176.7502,183.2653 167.6322,162.1363 148.8442,153.7653 C139.1962,149.4673 128.7522,149.3173 119.5072,152.5433 C116.3922,146.9073 111.4442,142.1733 105.0492,139.3233 C102.6372,138.2493 100.1632,137.5073 97.6812,137.0773 C102.1482,130.1603 104.2922,122.4803 103.7772,115.3333 C103.1912,99.7593 86.3222,87.2143 70.0042,87.2143 C68.3602,87.2143 66.7882,87.3483 65.2942,87.6013 C63.7822,80.4233 59.4312,74.3483 52.8442,71.4133 C49.9732,70.1343 46.9412,69.5713 43.9092,69.6463 C51.4252,39.1113 18.4952,0.6933 0.0002,0.0003 L0.0002,525.7633 L1000.0002,525.7633 C1000.0002,525.7633 999.9992,280.4943 1000.0002,150.3253 L1000.0002,146.2903 L1000.0002,71.3043 C992.2872,74.2923 985.1422,83.5053 981.3082,96.9263" id="Fill-1" fill="#567F83" mask="url(#mask-2)"></path>
        </g>
    </g>
</svg>