<?xml version="1.0" encoding="UTF-8"?>
<svg width="1000px" height="375px" viewBox="0 0 1000 375" version="1.1" xmlns="http://www.w3.org/2000/svg" xmlns:xlink="http://www.w3.org/1999/xlink">
    <!-- Generator: Sketch 49.3 (51167) - http://www.bohemiancoding.com/sketch -->
    <title>Page 1</title>
    <desc>Created with Sketch.</desc>
    <defs>
        <polygon id="path-1" points="0.0001 0 999.9991 0 999.9991 374.2801 0.0001 374.2801"></polygon>
    </defs>
    <g id="Page-1" stroke="none" stroke-width="1" fill="none" fill-rule="evenodd">
        <g>
            <mask id="mask-2" fill="white">
                <use xlink:href="#path-1"></use>
            </mask>
            <g id="Clip-2"></g>
            <path d="M984.2471,56.3411 C983.4701,59.0531 983.1101,61.7941 983.1251,64.5041 C979.5801,64.8311 976.1331,65.4931 972.8081,66.4441 C971.3131,63.9571 970.0251,61.3321 968.9871,58.5821 C969.7971,61.3791 970.8551,64.0701 972.1271,66.6361 C955.8691,71.5021 942.6841,83.4681 936.1561,98.9331 C925.2141,97.9391 913.1641,103.4721 905.2681,114.2691 C903.4491,116.7561 901.9691,119.3691 900.8111,122.0421 C899.6371,124.0701 898.6941,126.2611 898.0241,128.5991 C895.7001,136.7101 897.0891,145.0701 901.2121,152.1131 C886.6531,160.2281 876.8291,175.8661 876.8291,192.6891 C876.8291,194.5801 876.9641,196.4331 877.2061,198.2461 C872.5791,201.6811 868.9391,206.4091 866.7921,211.9131 C865.4961,211.7651 864.1681,211.6801 862.8071,211.6731 C857.0691,211.6431 851.5381,212.9581 846.5631,215.3091 C836.3171,219.3531 828.4551,227.4941 825.1831,237.1511 C818.8381,231.7261 810.0901,228.3701 800.4291,228.3701 C786.2101,228.3701 773.9761,235.6381 768.4651,246.0791 C762.1441,242.5761 754.7041,240.5521 746.7381,240.5521 C742.4061,240.5521 738.2311,241.1511 734.3061,242.2591 C720.4421,245.3131 709.0081,254.1071 703.1101,265.7601 C702.8861,265.7551 702.6641,265.7441 702.4391,265.7441 C688.4301,265.7441 676.6371,274.6281 673.0661,286.7281 C670.0321,285.7771 666.7891,285.2571 663.4141,285.2571 C660.1171,285.2571 656.9431,285.7511 653.9681,286.6611 C651.0201,285.5791 647.8351,284.9871 644.5121,284.9871 C638.0981,284.9871 632.2041,287.1951 627.5321,290.8821 C626.7761,289.7221 625.9061,288.6161 624.9061,287.5861 C615.4391,277.8351 598.0251,277.6061 585.7261,287.7771 C581.8141,291.0101 578.9311,294.8661 577.1061,298.9471 C571.5501,294.5011 564.8211,291.4761 557.4621,290.3631 C557.4681,290.1551 557.4831,289.9491 557.4831,289.7401 C557.4831,276.6051 545.4481,265.9551 530.6021,265.9551 C525.0921,265.9551 519.9701,267.4251 515.7051,269.9431 C510.9801,272.4781 507.0821,276.3551 504.5251,281.0671 C497.4381,274.4271 487.9161,270.3541 477.4391,270.3541 C476.4041,270.3541 475.3811,270.4051 474.3661,270.4841 C474.3301,270.3861 474.2891,270.2911 474.2511,270.1941 C469.1901,253.9781 453.9971,242.5671 435.6731,242.5671 C421.2281,242.5671 407.6511,249.6301 398.9311,260.6321 C392.3901,260.8111 386.1111,262.0291 380.2501,264.1301 C368.0061,249.2511 346.0871,239.3321 321.0751,239.3321 C314.1281,239.3321 307.4261,240.1071 301.0981,241.5291 C293.0011,242.4931 285.3141,245.0151 278.2651,248.8211 C273.4821,247.7601 268.5171,247.1831 263.4141,247.1831 C253.8721,247.1831 244.7901,249.1461 236.5421,252.6811 C235.9991,243.9251 231.7541,235.7271 224.2251,230.6931 C221.8181,229.0851 219.2401,227.9111 216.5761,227.1501 C220.9421,214.3981 216.9521,200.2551 205.9321,192.8881 C199.9961,188.9201 193.0221,187.5971 186.2701,188.6071 C185.2911,187.7751 184.2601,186.9841 183.1641,186.2521 C173.9971,180.1241 162.9531,179.1361 153.5961,182.6361 C151.8621,180.5311 150.0241,178.5161 148.0881,176.5981 C150.6101,170.0351 151.0681,163.2261 149.7131,157.1411 C148.8141,148.1671 144.1721,140.4111 136.5041,136.7731 C130.9341,134.1281 124.6881,134.0951 118.8051,136.1821 C115.7131,129.5281 109.1231,124.1421 100.7211,121.3101 C101.2491,118.3821 101.5371,115.3621 101.5371,112.2711 C101.5371,107.5951 100.8921,103.0801 99.7121,98.8091 C97.1841,75.9451 77.8071,58.1581 54.2681,58.1581 C50.1831,58.1581 46.2261,58.7011 42.4581,59.7061 C38.5671,51.0921 30.7771,44.8811 21.5431,43.7221 C22.5941,40.0561 23.1701,36.0861 23.1701,31.9391 C23.1701,13.4171 14.1441,-0.0009 0.0001,-0.0009 L0.0001,374.2801 L218.1321,374.2801 L221.5751,374.2801 L228.6781,374.2801 L298.1511,374.2801 L300.0581,374.2801 L303.5011,374.2801 L691.7861,374.2801 L999.9991,374.2801 L999.9991,91.1371 L999.9991,87.9001 L999.9991,37.7661 C992.4811,41.5161 986.6351,48.0051 984.2471,56.3411" id="Fill-1" fill="#F7E8BC" mask="url(#mask-2)"></path>
        </g>
    </g>
</svg>