<?xml version="1.0" encoding="UTF-8"?>
<svg width="1000px" height="468px" viewBox="0 0 1000 468" version="1.1" xmlns="http://www.w3.org/2000/svg" xmlns:xlink="http://www.w3.org/1999/xlink">
    <!-- Generator: Sketch 49.3 (51167) - http://www.bohemiancoding.com/sketch -->
    <title>Page 1</title>
    <desc>Created with Sketch.</desc>
    <defs>
        <polygon id="path-1" points="0.0005 0.0002 999.9995 0.0002 999.9995 467.034 0.0005 467.034"></polygon>
    </defs>
    <g id="Page-1" stroke="none" stroke-width="1" fill="none" fill-rule="evenodd">
        <g>
            <mask id="mask-2" fill="white">
                <use xlink:href="#path-1"></use>
            </mask>
            <g id="Clip-2"></g>
            <path d="M966.0125,130.1722 C961.3585,126.4852 955.8755,124.3512 950.0005,124.3512 C937.6735,124.3512 927.0635,133.7202 922.2595,147.1932 C919.3585,146.7332 916.3625,146.4912 913.2765,146.5192 C900.0665,146.6352 887.9935,151.3952 878.6655,159.0722 C865.6775,168.5812 857.2855,183.4942 857.2675,199.7932 C857.2645,202.1842 857.4485,204.5252 857.7965,206.8062 C848.0335,208.9522 839.9605,215.5952 835.8555,224.4572 C833.3225,224.3162 830.8115,224.4632 828.3665,224.8992 C822.1795,224.6962 816.2825,226.3552 811.4605,230.0912 C802.1625,237.2972 799.3275,250.2902 802.9595,263.2762 C793.1375,270.4302 786.7695,281.4882 786.5925,293.9412 C778.8355,287.6882 766.4485,285.9222 754.4245,290.3762 C749.5595,292.1782 745.3055,294.7922 741.8415,297.9152 C734.6595,303.9212 729.7035,312.5002 728.3955,322.2352 C720.9225,323.3062 714.2885,326.9802 709.4475,332.3112 C708.9345,331.4012 708.3535,330.5222 707.7005,329.6792 C702.0125,322.3392 692.3315,319.5282 682.4205,321.3252 C681.3185,319.0402 679.9655,316.8212 678.3375,314.7212 C666.8645,299.9162 646.5705,296.4332 633.0095,306.9432 C627.0075,311.5942 623.3355,318.2082 622.0965,325.4192 C614.0185,321.5532 604.0255,322.1572 596.0245,327.6512 C595.2645,322.8632 593.3495,318.2232 590.1985,314.1572 C579.8905,300.8572 560.3615,298.7332 546.5795,309.4132 C546.3525,309.5892 546.1305,309.7672 545.9095,309.9462 C545.1405,307.6322 543.9955,305.4452 542.4565,303.4592 C537.6865,297.3032 530.1065,294.3342 521.9385,294.5942 C521.6785,282.0242 511.4135,271.9122 498.7805,271.9122 C490.2235,271.9122 482.7545,276.5532 478.7435,283.4532 C476.2405,283.0972 473.6705,282.9012 471.0435,282.9012 C457.8945,282.9012 446.0645,287.5522 437.8385,294.9682 C433.0175,298.9982 429.2065,304.1932 426.8215,310.1132 C425.0305,309.8572 423.2025,309.7172 421.3415,309.7172 C414.0635,309.7172 407.2645,311.7492 401.4645,315.2652 C393.8655,306.0362 381.8525,300.0752 368.3285,300.0752 C364.9165,300.0752 361.6035,300.4582 358.4305,301.1732 C355.2465,291.2322 346.6705,284.1072 336.5855,284.1072 C333.9915,284.1072 331.4995,284.5852 329.1705,285.4552 C328.4645,276.7432 323.8165,269.2872 317.2075,265.2882 C320.7625,257.5262 321.4305,248.7492 318.3885,240.5172 C312.4815,224.5282 294.6145,216.0712 276.7715,219.9352 C276.4715,217.9162 276.0155,215.8952 275.3855,213.8852 C274.8675,212.2352 274.2415,210.6512 273.5355,209.1232 C266.1355,190.2752 245.7805,179.9592 226.7415,185.9332 C218.7705,188.4352 212.2455,193.4152 207.6905,199.8022 C201.5635,193.8602 193.2775,190.2042 184.1465,190.2042 C183.4825,190.2042 182.8245,190.2262 182.1695,190.2632 C180.9415,179.1342 170.7615,164.7532 156.3955,160.8852 C155.4635,160.4652 154.5015,160.0912 153.5025,159.7782 C143.4735,156.6392 132.9085,159.9542 125.9585,167.4192 C125.0675,163.1032 123.3045,159.0032 120.5735,155.3662 C116.4555,149.8852 110.7365,146.1832 104.2505,144.3022 C110.9455,133.7092 111.8775,120.3832 105.4925,109.4342 C98.7485,97.8652 85.6745,92.0972 72.4145,93.5012 C71.6905,85.2082 66.3585,77.9172 58.2515,73.3332 C53.0255,69.0932 46.3275,66.5462 39.0245,66.5462 C38.8795,66.5462 38.7355,66.5552 38.5905,66.5572 C41.2075,60.5782 42.6825,53.9302 42.6825,46.9122 C42.6825,21.6282 23.7355,1.0122 0.0005,0.0002 L0.0005,465.6292 L999.9995,467.0342 L999.9995,183.8902 L999.9995,180.6522 L999.9995,115.0502 L999.9995,91.5972 L999.9995,87.5622 C981.4105,93.4012 967.6175,110.0682 966.0125,130.1722" id="Fill-1" fill="#C8C9AC" mask="url(#mask-2)"></path>
        </g>
    </g>
</svg>