<?xml version="1.0" encoding="UTF-8"?>
<svg width="112px" height="232px" viewBox="0 0 112 232" version="1.1" xmlns="http://www.w3.org/2000/svg" xmlns:xlink="http://www.w3.org/1999/xlink">
    <!-- Generator: Sketch 49.3 (51167) - http://www.bohemiancoding.com/sketch -->
    <title>Page 1</title>
    <desc>Created with Sketch.</desc>
    <defs>
        <polygon id="path-1" points="0.4941 0.852 10.4841 0.852 10.4841 10.8416 0.4941 10.8416"></polygon>
    </defs>
    <g id="Page-1" stroke="none" stroke-width="1" fill="none" fill-rule="evenodd">
        <g transform="translate(0.000000, -1.000000)">
            <path d="M78.2692,214.6928 C78.4332,212.7498 79.2672,205.2608 77.2182,200.6958 C75.1692,196.1308 74.6592,193.1808 75.1362,190.4838 C75.1362,190.4838 86.7312,95.6508 86.4662,82.2338 C85.9062,53.9848 64.2352,35.1948 55.4922,30.4458 C46.7052,35.2458 25.0792,53.9848 24.5192,82.2338 C24.2542,95.6488 35.9092,190.4838 35.9092,190.4838 C36.3862,193.1808 35.8752,196.1308 33.8262,200.6958 C31.7772,205.2608 32.6112,212.7498 32.7752,214.6928 L78.2692,214.6928 Z" id="Fill-1" fill="#EF4E43"></path>
            <path d="M72.0207,184.4443 C72.7317,185.2713 77.9377,189.3393 82.1767,195.0613 C86.0297,200.2643 89.2327,212.8523 92.4917,218.8263 C93.9467,221.5013 97.5407,221.1633 97.5407,221.1633 C97.5407,221.1633 104.8167,201.3783 96.7647,180.5353 C91.0947,165.8563 80.8677,154.4683 76.5437,150.3323 C71.1167,157.4393 67.4987,177.8543 72.0207,184.4443" id="Fill-3" fill="#C44038"></path>
            <path d="M109.153,232.1479 C110.174,214.7209 111.182,197.7579 111.037,184.6889 C110.88,170.5499 106.095,161.1699 103.628,158.7679 C101.174,161.1449 96.376,170.5499 96.219,184.6889 C96.074,197.7579 97.083,214.7209 98.103,232.1479 L109.153,232.1479 Z" id="Fill-5" fill="#EF4E43"></path>
            <path d="M39.03,184.4443 C38.319,185.2713 33.113,189.3393 28.874,195.0613 C25.021,200.2643 21.818,212.8523 18.559,218.8263 C17.104,221.5013 13.51,221.1633 13.51,221.1633 C13.51,221.1633 6.235,201.3783 14.287,180.5353 C19.957,165.8563 30.183,154.4683 34.508,150.3323 C39.935,157.4393 43.552,177.8543 39.03,184.4443" id="Fill-7" fill="#C44038"></path>
            <path d="M1.8981,232.1479 C0.8771,214.7209 -0.1309,197.7579 0.0141,184.6889 C0.1711,170.5499 4.9561,161.1699 7.4221,158.7679 C9.8771,161.1449 14.6751,170.5499 14.8321,184.6889 C14.9771,197.7579 13.9681,214.7209 12.9481,232.1479 L1.8981,232.1479 Z" id="Fill-9" fill="#EF4E43"></path>
            <path d="M55.5134,54.309 C54.5034,54.309 53.6844,53.583 53.6844,52.688 L53.6844,6.083 C53.6844,5.188 54.5034,4.462 55.5134,4.462 C56.5234,4.462 57.3424,5.188 57.3424,6.083 L57.3424,52.688 C57.3424,53.583 56.5234,54.309 55.5134,54.309" id="Fill-11" fill="#F27868"></path>
            <g id="Group-15" transform="translate(50.000000, 0.148000)">
                <mask id="mask-2" fill="white">
                    <use xlink:href="#path-1"></use>
                </mask>
                <g id="Clip-14"></g>
                <path d="M10.4841,5.8466 C10.4841,8.6056 8.2481,10.8416 5.4891,10.8416 C2.7301,10.8416 0.4941,8.6056 0.4941,5.8466 C0.4941,3.0886 2.7301,0.8516 5.4891,0.8516 C8.2481,0.8516 10.4841,3.0886 10.4841,5.8466" id="Fill-13" fill="#F27868" mask="url(#mask-2)"></path>
            </g>
            <path d="M58.8136,30.8393 C58.8136,32.6753 57.3256,34.1643 55.4886,34.1643 C53.6526,34.1643 52.1646,32.6753 52.1646,30.8393 C52.1646,29.0033 53.6526,27.5143 55.4886,27.5143 C57.3256,27.5143 58.8136,29.0033 58.8136,30.8393" id="Fill-16" fill="#F27868"></path>
            <path d="M81.5763,60.373 C74.5373,44.364 61.7273,33.833 55.4923,30.446 C49.2253,33.869 36.4333,44.381 29.4053,60.374 C35.3723,58.836 43.8543,56.883 55.6473,56.883 C67.7163,56.883 76.0413,58.751 81.5763,60.373" id="Fill-18" fill="#F27868"></path>
            <path d="M64.5837,75.1035 C64.5837,80.1055 60.5287,84.1615 55.5267,84.1615 C50.5237,84.1615 46.4687,80.1055 46.4687,75.1035 C46.4687,70.1015 50.5237,66.0465 55.5267,66.0465 C60.5287,66.0465 64.5837,70.1015 64.5837,75.1035" id="Fill-20" fill="#CB414D"></path>
            <path d="M64.5837,96.0361 C64.5837,101.0381 60.5287,105.0941 55.5267,105.0941 C50.5237,105.0941 46.4687,101.0381 46.4687,96.0361 C46.4687,91.0341 50.5237,86.9781 55.5267,86.9781 C60.5287,86.9781 64.5837,91.0341 64.5837,96.0361" id="Fill-22" fill="#CB414D"></path>
            <path d="M64.5837,116.9687 C64.5837,121.9707 60.5287,126.0267 55.5267,126.0267 C50.5237,126.0267 46.4687,121.9707 46.4687,116.9687 C46.4687,111.9667 50.5237,107.9107 55.5267,107.9107 C60.5287,107.9107 64.5837,111.9667 64.5837,116.9687" id="Fill-24" fill="#CB414D"></path>
            <path d="M62.4416,75.1035 C62.4416,78.9225 59.3456,82.0185 55.5266,82.0185 C51.7076,82.0185 48.6116,78.9225 48.6116,75.1035 C48.6116,71.2845 51.7076,68.1885 55.5266,68.1885 C59.3456,68.1885 62.4416,71.2845 62.4416,75.1035" id="Fill-26" fill="#60B0B7"></path>
            <path d="M62.4416,96.0361 C62.4416,99.8551 59.3456,102.9511 55.5266,102.9511 C51.7076,102.9511 48.6116,99.8551 48.6116,96.0361 C48.6116,92.2171 51.7076,89.1201 55.5266,89.1201 C59.3456,89.1201 62.4416,92.2171 62.4416,96.0361" id="Fill-28" fill="#60B0B7"></path>
            <path d="M62.4416,116.9687 C62.4416,120.7877 59.3456,123.8847 55.5266,123.8847 C51.7076,123.8847 48.6116,120.7877 48.6116,116.9687 C48.6116,113.1497 51.7076,110.0537 55.5266,110.0537 C59.3456,110.0537 62.4416,113.1497 62.4416,116.9687" id="Fill-30" fill="#60B0B7"></path>
            <path d="M54.4474,79.8056 C53.1554,79.8056 51.9614,79.3806 50.9984,78.6636 C52.0524,80.0796 53.7384,80.9966 55.6384,80.9966 C58.8314,80.9966 61.4194,78.4086 61.4194,75.2156 C61.4194,73.3156 60.5024,71.6296 59.0874,70.5756 C59.8034,71.5386 60.2284,72.7316 60.2284,74.0246 C60.2284,77.2176 57.6404,79.8056 54.4474,79.8056" id="Fill-32" fill="#467678"></path>
            <path d="M59.0876,91.5082 C59.8036,92.4702 60.2286,93.6642 60.2286,94.9562 C60.2286,98.1502 57.6406,100.7382 54.4476,100.7382 C53.1546,100.7382 51.9616,100.3132 50.9986,99.5962 C52.0526,101.0122 53.7376,101.9292 55.6386,101.9292 C58.8316,101.9292 61.4196,99.3412 61.4196,96.1482 C61.4196,94.2472 60.5026,92.5622 59.0876,91.5082" id="Fill-34" fill="#467678"></path>
            <path d="M59.0876,112.4409 C59.8036,113.4039 60.2286,114.5969 60.2286,115.8899 C60.2286,119.0829 57.6406,121.6709 54.4476,121.6709 C53.1546,121.6709 51.9616,121.2459 50.9986,120.5289 C52.0526,121.9449 53.7376,122.8619 55.6386,122.8619 C58.8316,122.8619 61.4196,120.2739 61.4196,117.0809 C61.4196,115.1809 60.5026,113.4949 59.0876,112.4409" id="Fill-36" fill="#467678"></path>
            <path d="M33.8263,200.6957 C31.7773,205.2607 32.6113,212.7497 32.7753,214.6927 L78.2693,214.6927 C78.4333,212.7497 79.2673,205.2607 77.2183,200.6957 C76.5023,199.1017 75.9783,197.7077 75.6153,196.4497 L35.4303,196.4497 C35.0663,197.7077 34.5413,199.1017 33.8263,200.6957" id="Fill-38" fill="#C44038"></path>
            <path d="M42.9108,200.5439 C42.8938,198.9869 42.6988,197.6159 42.4208,196.4499 L38.6698,196.4499 C38.3918,197.6169 38.1968,198.9879 38.1788,200.5439 C38.1358,204.4649 38.4168,209.4849 38.7218,214.6929 L42.3678,214.6929 C42.6728,209.4849 42.9538,204.4649 42.9108,200.5439" id="Fill-40" fill="#EF4E43"></path>
            <path d="M52.8757,200.5439 C52.8587,198.9869 52.6637,197.6159 52.3857,196.4499 L48.6347,196.4499 C48.3557,197.6169 48.1607,198.9879 48.1437,200.5439 C48.1007,204.4649 48.3817,209.4849 48.6867,214.6929 L52.3327,214.6929 C52.6377,209.4849 52.9197,204.4649 52.8757,200.5439" id="Fill-42" fill="#EF4E43"></path>
            <path d="M62.8405,200.5439 C62.8225,198.9869 62.6285,197.6159 62.3505,196.4499 L58.5985,196.4499 C58.3205,197.6169 58.1255,198.9879 58.1085,200.5439 C58.0655,204.4649 58.3465,209.4849 58.6515,214.6929 L62.2975,214.6929 C62.6025,209.4849 62.8835,204.4649 62.8405,200.5439" id="Fill-44" fill="#EF4E43"></path>
            <path d="M72.8053,200.5439 C72.7873,198.9869 72.5933,197.6159 72.3153,196.4499 L68.5633,196.4499 C68.2853,197.6169 68.0903,198.9879 68.0733,200.5439 C68.0303,204.4649 68.3113,209.4849 68.6163,214.6929 L72.2623,214.6929 C72.5673,209.4849 72.8483,204.4649 72.8053,200.5439" id="Fill-46" fill="#EF4E43"></path>
        </g>
    </g>
</svg>