<?xml version="1.0" encoding="UTF-8"?>
<svg width="13px" height="114px" viewBox="0 0 13 114" version="1.1" xmlns="http://www.w3.org/2000/svg" xmlns:xlink="http://www.w3.org/1999/xlink">
    <!-- Generator: Sketch 49.3 (51167) - http://www.bohemiancoding.com/sketch -->
    <title>Page 1</title>
    <desc>Created with Sketch.</desc>
    <defs>
        <polygon id="path-1" points="0.000242402743 0.9883 12.8966285 0.9883 12.8966285 115 0.000242402743 115"></polygon>
    </defs>
    <g id="Page-1" stroke="none" stroke-width="1" fill="none" fill-rule="evenodd">
        <g transform="translate(0.000000, -1.000000)">
            <g id="Group-3" transform="translate(0.000000, 0.012000)">
                <mask id="mask-2" fill="white">
                    <use xlink:href="#path-1"></use>
                </mask>
                <g id="Clip-2"></g>
                <path d="M11.9762,0.9883 C13.5342,18.4063 13.2162,32.9223 10.2362,60.6343 C7.1132,89.6813 7.4542,92.3813 6.4442,115.0003 C5.4352,92.3813 5.7752,89.6813 2.6522,60.6343 C-0.3278,32.9223 -0.6328,18.4063 0.9242,0.9883 L11.9762,0.9883 Z" id="Fill-1" fill="#F8B09C" mask="url(#mask-2)"></path>
            </g>
            <path d="M6.4444,89.5784 C6.1114,82.1664 5.5754,74.0174 4.3454,58.9314 C3.1514,44.2574 2.5364,34.4884 2.2914,26.2654 C2.0714,18.8574 2.1484,12.2654 2.5424,1.0404 L10.3454,1.0404 C10.7404,12.2664 10.8174,18.8574 10.5964,26.2654 C10.3524,34.4874 9.7374,44.2574 8.5424,58.9314 C7.3134,74.0164 6.7774,82.1664 6.4444,89.5784" id="Fill-4" fill="#EDEFAD"></path>
        </g>
    </g>
</svg>