<?xml version="1.0" encoding="UTF-8"?>
<svg width="144px" height="110px" viewBox="0 0 144 110" version="1.1" xmlns="http://www.w3.org/2000/svg" xmlns:xlink="http://www.w3.org/1999/xlink">
    <!-- Generator: Sketch 49.3 (51167) - http://www.bohemiancoding.com/sketch -->
    <title>Page 1</title>
    <desc>Created with Sketch.</desc>
    <defs>
        <path d="M0.846,32.341 C0.846,50.081 15.228,64.463 32.968,64.463 C50.708,64.463 65.09,50.081 65.09,32.341 C65.09,14.602 50.708,0.22 32.968,0.22 C15.228,0.22 0.846,14.602 0.846,32.341 Z" id="path-1"></path>
        <polygon id="path-3" points="0 0.905 143.811602 0.905 143.811602 109.999762 0 109.999762"></polygon>
    </defs>
    <g id="Page-1" stroke="none" stroke-width="1" fill="none" fill-rule="evenodd">
        <g transform="translate(0.000000, -1.000000)">
            <path d="M104.0891,61.4365 C104.0891,79.1765 89.7081,93.5585 71.9671,93.5585 C54.2271,93.5585 39.8461,79.1765 39.8461,61.4365 C39.8461,43.6965 54.2271,29.3145 71.9671,29.3145 C89.7081,29.3145 104.0891,43.6965 104.0891,61.4365" id="Fill-1" fill="#E1D586"></path>
            <g id="Group-5" transform="translate(39.000000, 29.095000)">
                <mask id="mask-2" fill="white">
                    <use xlink:href="#path-1"></use>
                </mask>
                <g id="Clip-4"></g>
                <path d="M48.3157,2.9982 C46.4837,3.8122 43.4037,4.8672 42.2037,6.6422 C38.9367,11.4772 42.2697,9.2932 44.0597,12.7562 C46.4917,17.4632 48.1457,16.3202 45.9847,24.8452 C44.3417,28.1642 54.2307,28.9252 54.4857,33.4862 C54.6087,35.6772 46.6157,36.1322 44.0157,33.4982 C42.2197,31.6782 43.1597,28.4982 41.6377,26.7492 C40.4167,25.3452 38.3657,23.6002 36.6277,24.2522 C34.8887,24.9042 35.5467,27.4072 34.4537,29.2502 C33.3607,31.0942 32.0877,29.2202 28.4357,29.7782 C24.7837,30.3372 23.7577,21.1032 19.7607,24.9542 C18.9827,25.7042 18.4947,29.5692 17.6767,30.8942 C16.9247,32.1122 14.8407,32.9272 14.3217,34.2482 C12.7947,38.1442 19.3347,41.3102 20.1107,45.7672 C20.8037,49.7462 15.9037,51.8482 19.7457,54.1862 C23.5877,56.5242 17.8277,57.7332 17.8277,65.8032 C17.8277,67.0222 47.7057,78.6072 47.7057,78.6072 L88.5597,40.8032 L75.7547,2.3882 L48.3157,2.9982 Z" id="Fill-3" fill="#CDC172" mask="url(#mask-2)"></path>
            </g>
            <g id="Group-11" transform="translate(0.000000, 0.095000)">
                <path d="M71.8206,48.3918 C71.1376,48.9448 71.5466,50.2178 71.4946,50.3478 C70.8636,51.9328 69.8746,51.4138 69.7716,52.9918 C76.8116,54.4548 78.2396,42.9628 73.8496,45.7438 C69.4596,48.5238 73.3166,47.1808 71.8206,48.3918" id="Fill-6" fill="#CDC172"></path>
                <g id="Group-10">
                    <mask id="mask-4" fill="white">
                        <use xlink:href="#path-3"></use>
                    </mask>
                    <g id="Clip-9"></g>
                    <path d="M104.0808,61.759 C104.0568,63.67 103.8658,65.54 103.5208,67.357 C115.1978,78.482 121.8418,87.328 119.9308,90.174 C116.8678,94.732 93.0128,82.169 66.6498,62.113 C40.2868,42.058 21.3978,22.104 24.4608,17.547 C26.7558,14.131 40.7268,20.33 58.6798,32.092 C60.0218,31.482 61.4128,30.962 62.8448,30.538 C31.0228,8.887 4.7248,-3.369 0.5628,2.275 C-4.3632,8.955 23.5848,38.178 62.9868,67.547 C102.3888,96.916 138.3228,115.309 143.2488,108.63 C147.1328,103.363 130.5738,84.078 104.0808,61.759" id="Fill-8" fill="#A8D1C3" mask="url(#mask-4)"></path>
                </g>
            </g>
        </g>
    </g>
</svg>