<?xml version="1.0" encoding="UTF-8"?>
<svg width="260px" height="260px" viewBox="0 0 260 260" version="1.1" xmlns="http://www.w3.org/2000/svg" xmlns:xlink="http://www.w3.org/1999/xlink">
    <!-- Generator: Sketch 49.3 (51167) - http://www.bohemiancoding.com/sketch -->
    <title>Page 1</title>
    <desc>Created with Sketch.</desc>
    <defs>
        <polygon id="path-1" points="0 0.7767 259.2229 0.7767 259.2229 259.9997 0 259.9997"></polygon>
    </defs>
    <g id="Page-1" stroke="none" stroke-width="1" fill="none" fill-rule="evenodd">
        <g transform="translate(0.000000, -1.000000)">
            <g id="Group-3" transform="translate(0.000000, 0.224000)">
                <mask id="mask-2" fill="white">
                    <use xlink:href="#path-1"></use>
                </mask>
                <g id="Clip-2"></g>
                <path d="M259.2229,130.3877 C259.2229,201.9697 201.1949,259.9997 129.6119,259.9997 C58.0299,259.9997 -0.0001,201.9697 -0.0001,130.3877 C-0.0001,58.8057 58.0299,0.7767 129.6119,0.7767 C201.1949,0.7767 259.2229,58.8057 259.2229,130.3877" id="Fill-1" fill="#F7E8BC" mask="url(#mask-2)"></path>
            </g>
            <path d="M169.8777,28.0687 C164.5057,34.2347 161.3007,43.7397 156.7557,50.5107 C150.2557,60.1927 143.1997,69.2037 137.5437,79.4437 C127.9077,96.8897 119.1507,114.8647 115.8037,134.6717 C126.8077,106.2847 146.6747,83.8697 160.0457,56.9477 C164.0187,48.9497 169.2507,42.4337 173.8467,34.9117 C175.9917,31.4017 180.5417,26.3547 179.7937,22.0577 C175.0627,21.1487 172.8997,26.0857 169.5257,28.3847 L169.8777,28.0687 Z" id="Fill-4" fill="#ECE4B5"></path>
            <path d="M69.0657,230.2914 C70.8517,228.2744 71.3787,225.0024 72.2237,222.3484 C75.3877,212.4004 78.6447,202.8434 82.9097,193.2814 C91.5247,173.9644 102.7057,155.3534 114.9847,138.1534 C128.5077,119.2104 142.4077,98.4404 161.2597,84.3854 C160.6207,88.2094 156.6217,93.0354 154.4957,96.5634 C148.6097,106.3324 142.4607,115.8184 137.0497,125.8654 C127.4217,143.7424 117.6817,161.3874 108.4637,179.4824 C102.5397,191.1104 97.8647,203.4114 91.7187,214.9274 C89.1977,219.6494 86.3427,226.4344 82.3477,229.8714 C79.3817,227.4794 77.9497,227.8124 75.9597,223.8904 L69.0657,230.2914 Z" id="Fill-6" fill="#ECE4B5"></path>
            <path d="M228.6203,56.4554 C222.7953,58.9374 219.9663,67.9734 215.9263,73.2144 C208.9623,82.2494 202.9093,92.1584 196.5763,101.6614 C189.4053,112.4204 182.4613,124.3664 179.9433,137.1374 C188.4053,110.4484 211.0653,89.0384 230.1333,69.7164 C236.7433,63.0174 239.5283,51.9504 228.8083,56.1314 L228.6203,56.4554 Z" id="Fill-8" fill="#ECE4B5"></path>
            <path d="M69.5227,69.2963 C82.5957,55.9093 97.5657,42.4713 108.7707,27.4473 C102.0637,30.5103 95.5807,37.0503 89.7077,41.6073 C75.6217,52.5353 63.3947,66.4263 51.3357,79.5423 C36.9237,95.2183 23.9397,111.4933 13.0807,129.8443 C9.6367,135.6643 6.0807,143.4323 1.2777,148.8793 C2.2127,155.5033 3.6487,161.9663 5.5457,168.2303 C13.6617,152.6063 21.1237,135.1733 29.0657,119.0583 C38.4347,100.0493 54.8587,84.3123 69.5227,69.2963" id="Fill-10" fill="#ECE4B5"></path>
            <path d="M69.6946,118.0004 C85.2256,97.6834 98.4906,75.7714 113.8776,55.4704 C120.5626,46.6484 128.3056,38.8154 136.1396,30.9924 C140.6746,26.4624 145.6246,20.5324 151.0346,16.3494 C150.8036,16.4624 150.5746,16.5794 150.3456,16.7014 C144.7926,19.6864 143.7496,21.0744 138.5246,24.8034 C119.5246,38.3604 102.7906,52.3014 86.1916,68.7294 C75.0346,79.7714 66.6276,93.3964 57.6296,106.1834 C48.1376,119.6734 39.4086,133.7844 32.1316,148.5544 C27.3556,158.2484 21.2836,167.4054 16.7556,177.1064 C15.4776,179.8444 14.2226,183.7924 12.3876,185.9754 C14.5146,190.4694 16.8896,194.8214 19.4996,199.0144 C24.2556,191.2894 28.3006,182.0474 32.2556,174.0654 C42.0766,154.2424 56.2696,135.5624 69.6946,118.0004" id="Fill-12" fill="#ECE4B5"></path>
        </g>
    </g>
</svg>