<?xml version="1.0" encoding="UTF-8"?>
<svg width="903px" height="431px" viewBox="0 0 903 431" version="1.1" xmlns="http://www.w3.org/2000/svg" xmlns:xlink="http://www.w3.org/1999/xlink">
    <!-- Generator: Sketch 49.3 (51167) - http://www.bohemiancoding.com/sketch -->
    <title>Page 1</title>
    <desc>Created with Sketch.</desc>
    <defs></defs>
    <g id="Page-1" stroke="none" stroke-width="1" fill="none" fill-rule="evenodd">
        <g transform="translate(0.000000, -1.000000)" fill="#F7E8BC">
            <polygon id="Fill-1" points="442.91 75.5574 446.257 73.0054 442.49 74.8864 442.96 67.4124 441.703 74.7954 437.373 71.1314 441.14 75.3524 433.747 76.5584 441.226 76.1404 438.825 80.8904 441.896 76.5654 444.715 83.5014 442.644 76.3064 449.826 78.4264"></polygon>
            <polygon id="Fill-2" points="292.0844 422.7004 298.1644 418.2634 291.6494 422.0314 291.6554 417.7994 290.8574 421.9574 285.1774 417.0154 290.3034 422.5294 284.7334 423.7484 290.4044 423.3194 286.8514 429.9554 291.0854 423.7314 293.4104 428.5504 291.8344 423.4554 299.0954 425.4434"></polygon>
            <polygon id="Fill-3" points="717.0502 194.4705 718.9102 191.3225 716.5942 194.1545 715.2662 188.6065 716.0022 194.3975 712.0392 193.4715 715.7182 195.0185 710.6202 198.7885 715.9582 195.5505 715.2742 199.9005 716.5372 195.5915 720.1362 199.4605 717.0242 195.1105 722.7142 193.8105"></polygon>
            <polygon id="Fill-4" points="556.5824 396.7747 558.2064 393.8777 556.1844 396.4827 555.0234 391.3787 555.6664 396.7077 552.2064 395.8557 555.4184 397.2777 550.9664 400.7467 555.6264 397.7677 555.0314 401.7697 556.1344 397.8057 559.2774 401.3647 556.5584 397.3627 561.5274 396.1667"></polygon>
            <polygon id="Fill-5" points="797.8744 81.5881 789.7364 82.6711 796.0744 71.5471 788.3944 82.1601 783.3244 74.5601 786.9764 82.7421 772.8394 81.0891 786.5494 83.9771 778.7534 90.0541 787.4384 84.9381 787.3924 96.7961 788.9704 84.8961 800.2844 91.5001 789.9954 83.8871"></polygon>
            <polygon id="Fill-6" points="430.7728 184.3235 433.0348 182.2835 430.5178 183.9515 431.0438 179.1575 430.0058 183.9935 427.2838 182.2185 429.6228 184.4165 424.7558 186.1135 429.6548 184.9045 427.9468 188.2155 430.0808 185.0895 431.7188 189.1265 430.5768 184.8305 435.2078 185.2665"></polygon>
            <polygon id="Fill-7" points="304.6342 224.5095 307.7982 221.2125 304.3042 224.1565 303.6982 219.6285 303.8222 224.1955 301.5662 222.9665 303.5512 224.5965 299.2712 226.1945 303.6962 225.0575 302.7342 228.3815 304.1482 225.2315 306.6572 229.0495 304.5652 224.9885 307.8082 225.1445"></polygon>
            <polygon id="Fill-8" points="530.1666 426.6955 527.4406 425.3045 529.9356 427.0755 525.4596 428.3525 530.1756 427.5455 529.6916 430.7855 530.7096 427.7515 534.1686 431.7395 534.1686 431.7395 531.1296 427.5405 534.7616 427.9345 531.1236 427.0695 534.0596 424.0175 530.6936 426.6935 529.2246 422.1375"></polygon>
            <polygon id="Fill-9" points="593.6205 15.1848 596.3195 13.3278 593.3845 14.7588 593.9065 10.1798 592.9035 14.6778 589.6485 11.4148 592.5405 15.0038 589.9775 15.3968 592.5685 15.4898 590.1115 19.3898 592.9665 15.7718 594.2265 19.0268 593.4345 15.6358 597.7845 17.1638"></polygon>
            <polygon id="Fill-10" points="552.1263 316.2791 554.1673 322.1651 552.7593 316.0961 556.9943 317.3871 553.0103 315.4871 558.2943 312.1871 552.6923 314.9111 553.4063 308.7231 552.0413 314.8011 546.4513 309.8401 551.5503 315.2401 545.3583 315.9231 551.5873 315.8991 549.2043 319.9711"></polygon>
            <polygon id="Fill-11" points="284.5287 344.5911 292.1957 342.6261 284.3627 343.7691 286.0177 339.6371 283.6187 343.3861 279.9947 336.3491 282.8547 343.7301 276.9387 342.7531 282.6467 344.5421 276.5917 349.6411 283.1507 345.2101 283.5457 350.8231 283.9887 345.2321 290.3077 350.0021"></polygon>
            <polygon id="Fill-12" points="332.5184 342.0857 331.9244 332.0687 331.4474 341.8147 326.6434 337.5637 330.7784 342.4637 321.0234 342.7097 331.0194 343.5437 328.3364 349.8677 331.9954 344.2417 335.8244 351.3427 332.9574 344.0357 340.1244 346.7407 333.1934 343.0747 340.7524 338.4187"></polygon>
            <polygon id="Fill-13" points="287.0131 315.2913 285.3431 318.7943 287.3741 315.4873 288.6871 317.9133 287.7521 315.3273 291.5391 316.1773 287.8621 314.9323 290.8871 312.4993 287.6221 314.5993 287.5241 312.4193 287.2141 314.5783 284.1701 312.1723 286.9411 314.8863 284.1031 315.6483"></polygon>
            <polygon id="Fill-14" points="145.2479 262.8621 147.7009 252.3101 144.1449 262.5441 140.1719 257.9271 143.2109 263.2061 132.3769 263.1661 143.1459 264.3511 138.2259 270.9191 143.9999 265.1161 146.3719 275.6871 145.1299 264.9261 152.1949 267.9891 145.6859 263.9221 155.4659 259.2591"></polygon>
            <polygon id="Fill-15" points="111.7465 240.4778 115.1675 236.4158 111.3355 240.0948 110.2915 234.8868 110.7795 240.1758 108.0705 238.9198 110.4965 240.6598 105.6545 242.8368 110.6985 241.1838 109.8325 245.1128 111.2355 241.3528 114.4345 245.5918 111.7015 241.0388 115.4755 240.9748"></polygon>
            <polygon id="Fill-16" points="396.8212 416.6213 403.2572 413.8223 396.4982 415.6273 399.4762 406.2103 395.5212 415.2603 390.0152 407.0613 394.6232 415.7963 389.0732 415.5713 394.4832 416.8303 387.7142 424.0233 395.2052 417.5863 396.5182 424.9513 396.2462 417.4933 404.7652 422.4923"></polygon>
            <polygon id="Fill-17" points="725.4447 41.679 732.5797 36.781 724.9667 40.897 725.1147 36.032 724.0597 40.783 717.6947 34.916 723.4027 41.423 716.9617 42.64 723.4937 42.335 719.1907 49.846 724.2627 42.831 726.7757 48.446 725.1327 42.539 733.4107 45.064"></polygon>
            <polygon id="Fill-18" points="389.1337 242.1751 380.6387 243.5961 383.2097 238.7071 379.9277 243.1521 377.5087 234.8831 379.0537 243.5631 373.0047 242.4621 378.6717 244.5221 371.2607 250.5911 379.0707 245.3061 378.3657 251.9201 379.9507 245.3241 385.6687 250.8911 380.6477 244.5641"></polygon>
            <polygon id="Fill-19" points="510.9843 20.2791 512.8273 18.2361 510.6953 19.9771 510.5453 15.6871 510.2223 20.0681 507.4373 18.7921 509.9203 20.4841 505.5953 22.5021 510.0163 20.9111 508.8603 24.0191 510.4393 21.0291 512.5133 24.4221 510.8693 20.7481 515.2603 20.6411"></polygon>
            <polygon id="Fill-20" points="535.1322 45.3435 536.2492 43.4545 534.8592 45.1535 534.0622 41.8255 534.5042 45.2995 532.1262 44.7435 534.3332 45.6725 531.2742 47.9335 534.4762 45.9905 534.0672 48.6015 534.8242 46.0155 536.9852 48.3375 535.1172 45.7275 538.5312 44.9475"></polygon>
            <polygon id="Fill-21" points="841.2958 69.4202 843.0268 67.5632 841.0988 69.1882 840.7888 67.6122 840.8248 69.1862 838.5378 67.5422 840.6798 69.4202 838.8838 70.0622 840.7728 69.7092 840.0588 72.3012 841.0338 69.8392 842.1758 71.5542 841.2668 69.7112 843.8718 70.2032"></polygon>
            <polygon id="Fill-22" points="840.5033 78.9329 841.4073 77.7849 840.4133 78.7999 840.3013 77.8709 840.2793 78.8039 839.1923 77.8889 840.2003 78.9469 839.2973 79.3749 840.2373 79.1169 839.8183 80.6719 840.3633 79.1869 840.8823 80.1739 840.4823 79.1049 841.7533 79.3289"></polygon>
            <polygon id="Fill-23" points="854.2987 91.0154 852.1197 89.5114 854.5597 88.4824 852.0257 89.2474 852.3677 87.8004 851.7597 89.1594 850.2137 87.0094 851.5237 89.3094 849.5187 89.2804 851.4957 89.5884 849.7437 91.5754 851.6957 89.7854 852.1027 91.6214 851.9737 89.7504"></polygon>
            <polygon id="Fill-24" points="832.7484 109.6975 836.5344 107.3565 832.4614 109.2965 832.3964 106.8445 831.9584 109.2225 828.2724 106.1525 831.6164 109.5335 828.1014 110.0315 831.6934 109.9935 829.5484 113.7025 832.1334 110.2585 833.6874 113.1325 832.6024 110.1265 837.2414 111.5465"></polygon>
            <polygon id="Fill-25" points="854.2621 64.9397 852.0801 67.4147 854.5111 65.1847 855.0191 67.4727 854.8591 65.1417 857.7551 66.7167 855.0391 64.8447 858.0791 63.5617 854.9221 64.5167 855.3491 62.7117 854.5911 64.4037 852.6641 61.7267 854.2971 64.5917 851.8001 64.5547"></polygon>
            <polygon id="Fill-26" points="874.2888 3.8656 871.7908 3.8266 874.2508 4.2116 872.0708 6.6876 874.5018 4.4566 875.0098 6.7456 874.8488 4.4136 877.7468 5.9896 875.0308 4.1166 878.0698 2.8346 874.9128 3.7886 875.3388 1.9846 874.5818 3.6756 872.6548 0.9986"></polygon>
            <polygon id="Fill-27" points="869.2015 20.7434 865.7475 21.9074 867.6415 16.6764 865.1245 21.8094 862.3325 19.0524 864.5525 22.1774 858.2775 22.7124 864.4625 22.7344 861.5425 25.9704 864.9245 23.0594 865.8205 28.0554 865.5865 22.9114 871.0165 24.7044 865.9535 22.3964"></polygon>
            <polygon id="Fill-28" points="860.2548 174.1008 866.3018 169.6868 859.8218 173.4358 859.8288 169.2258 859.0338 173.3608 853.3848 168.4468 858.4838 173.9308 852.9438 175.1428 858.5838 174.7158 855.0498 181.3188 859.2618 175.1268 861.5738 179.9198 860.0058 174.8528 867.2278 176.8288"></polygon>
            <polygon id="Fill-29" points="894.6045 98.3053 890.2125 95.4893 894.1575 98.8813 887.5625 100.8753 894.3315 99.5893 892.7165 104.2113 894.9945 99.8963 898.4045 105.8793 895.6455 99.5693 902.4495 100.6333 895.7955 98.8553 898.5415 96.1213 895.3325 98.2933 894.8565 91.4213"></polygon>
            <polygon id="Fill-30" points="696.9017 214.5379 701.1647 211.4259 696.5967 214.0689 696.6007 211.0999 696.0417 214.0159 692.0577 210.5509 695.6517 214.4169 691.7467 215.2719 695.7237 214.9709 693.2327 219.6239 696.2017 215.2599 697.8317 218.6389 696.7257 215.0659 701.8167 216.4599"></polygon>
            <polygon id="Fill-31" points="582.954 295.9978 585.722 292.7978 582.404 295.4238 581.328 287.9738 581.611 295.4968 576.596 292.7828 581.172 296.1598 574.148 298.8668 581.418 296.9168 580.032 302.0828 582.164 297.1968 586.365 303.4418 582.847 296.7878 590.349 297.3968"></polygon>
            <polygon id="Fill-32" points="593.0858 176.7263 586.5728 180.4943 586.5788 176.2633 585.7798 180.4193 580.1018 175.4793 585.2268 180.9913 579.6578 182.2103 585.3288 181.7813 581.7758 188.4173 586.0098 182.1943 588.3328 187.0123 586.7568 181.9183 594.0158 183.9053 587.0068 181.1633"></polygon>
            <polygon id="Fill-33" points="622.1542 205.7849 630.1172 194.2769 620.6642 204.8179 614.1972 191.4009 619.0292 205.0599 610.0082 201.9669 618.4752 206.3309 605.1522 212.2509 619.4252 207.6759 618.6812 221.0689 621.1602 208.0799 629.9412 215.7159 622.3742 207.2379 632.1772 206.7039"></polygon>
            <polygon id="Fill-34" points="9.585 29.0107 2.102 23.5167 8.963 29.7717 0 32.1927 9.169 30.7317 7.292 35.6027 10.049 31.1687 14.404 39.3657 10.939 30.7547 17.889 31.8107 11.17 29.8007 18.193 23.7277 10.568 29.0247 10.019 22.4477"></polygon>
            <polygon id="Fill-35" points="174.9994 31.3147 176.8534 26.4097 174.4924 31.0917 172.8804 28.6217 173.9994 31.3497 168.8064 30.6327 173.8954 31.8937 171.1124 34.7277 174.2564 32.3157 174.7134 37.5407 174.8094 32.2967 178.0004 34.2217 175.1414 31.8517 180.1324 30.2437"></polygon>
            <polygon id="Fill-36" points="278.9896 185.9954 277.1966 187.8224 279.2226 186.2674 279.5166 189.6354 279.5796 186.2554 281.6376 187.4964 279.7936 185.9684 283.0106 184.9324 279.7016 185.6234 280.8976 182.4614 279.3746 185.4784 278.3366 183.8864 279.0576 185.6444 275.7086 185.1834"></polygon>
            <polygon id="Fill-37" points="167.2694 203.5388 170.4474 199.8598 166.7544 203.1338 164.7884 198.0028 166.1494 203.1698 162.9394 201.7438 165.9084 203.6188 160.8564 205.3588 166.2134 204.1438 165.8574 207.8868 166.8364 204.3468 171.0484 208.7048 167.3054 204.0788 171.4934 204.3068"></polygon>
            <polygon id="Fill-38" points="66.4066 159.0906 71.4636 150.1076 65.4856 158.5056 63.0896 153.2276 64.4546 158.8616 54.5716 155.9306 64.0896 159.8886 57.8426 164.5726 64.6656 160.8156 64.0086 171.1036 65.7486 160.9426 71.3816 165.6276 66.5236 160.1746 76.6986 158.5276"></polygon>
            <polygon id="Fill-39" points="380.9515 157.1077 366.1315 148.9107 374.3015 144.0177 365.3575 147.2947 368.3055 130.6147 363.6125 146.8897 354.8085 137.5607 362.2065 148.0017 345.2875 148.8407 362.2005 149.7937 355.6025 159.8597 363.5985 150.9187 368.1805 167.2237 365.3465 150.5247"></polygon>
            <polygon id="Fill-40" points="340.1239 187.6858 341.3209 184.8688 339.7119 187.4738 337.9969 183.0178 339.2479 187.7408 335.8559 187.4098 339.0799 188.2878 335.2649 191.9778 339.3369 188.7018 339.2499 192.3868 339.8229 188.6718 343.2359 191.4848 340.1729 188.2208 344.7499 186.5138"></polygon>
            <polygon id="Fill-41" points="148.1635 21.345 151.1475 14.321 147.1355 20.814 142.8615 9.705 145.9785 21.482 137.5225 20.655 145.5625 22.844 136.0505 32.045 146.2005 23.877 145.9845 33.066 147.4155 23.803 155.9225 30.818 148.2865 22.677 159.7015 18.42"></polygon>
            <polygon id="Fill-42" points="268.6967 91.78 270.5537 88.637 268.2427 91.464 266.9177 85.926 267.6517 91.707 263.6957 90.782 267.3697 92.327 262.2787 96.09 267.6057 92.857 266.9247 97.2 268.1867 92.899 271.7777 96.76 268.6727 92.419 274.3507 91.121"></polygon>
        </g>
    </g>
</svg>